<mxfile host="app.diagrams.net" modified="2021-10-12T14:14:27.964Z" agent="5.0 (Macintosh; Intel Mac OS X 10_15_6) AppleWebKit/537.36 (KHTML, like Gecko) Chrome/94.0.4606.71 Safari/537.36" etag="lqvVD0-1aNUwhuqIBURz" version="15.4.3" type="github">
  <diagram id="O9qdJaTrhUAC7ERY-Imf" name="Page-1">
    <mxGraphModel dx="1033" dy="626" grid="1" gridSize="10" guides="1" tooltips="1" connect="1" arrows="1" fold="1" page="1" pageScale="1" pageWidth="827" pageHeight="1169" math="0" shadow="0">
      <root>
        <mxCell id="0" />
        <mxCell id="1" parent="0" />
        <mxCell id="bHOIuGT-a0G8BVBxqqnn-37" value="" style="ellipse;shape=cloud;whiteSpace=wrap;html=1;" vertex="1" parent="1">
          <mxGeometry x="560" y="361.25" width="230" height="210" as="geometry" />
        </mxCell>
        <mxCell id="bHOIuGT-a0G8BVBxqqnn-19" style="edgeStyle=orthogonalEdgeStyle;rounded=0;orthogonalLoop=1;jettySize=auto;html=1;exitX=1;exitY=0.5;exitDx=0;exitDy=0;entryX=0;entryY=0;entryDx=100;entryDy=0;entryPerimeter=0;" edge="1" parent="1" source="bHOIuGT-a0G8BVBxqqnn-2" target="bHOIuGT-a0G8BVBxqqnn-17">
          <mxGeometry relative="1" as="geometry">
            <Array as="points">
              <mxPoint x="720" y="80" />
            </Array>
          </mxGeometry>
        </mxCell>
        <mxCell id="bHOIuGT-a0G8BVBxqqnn-30" style="edgeStyle=orthogonalEdgeStyle;rounded=0;orthogonalLoop=1;jettySize=auto;html=1;exitX=1;exitY=0.5;exitDx=0;exitDy=0;entryX=0;entryY=0;entryDx=0;entryDy=0;entryPerimeter=0;" edge="1" parent="1" source="bHOIuGT-a0G8BVBxqqnn-4" target="bHOIuGT-a0G8BVBxqqnn-17">
          <mxGeometry relative="1" as="geometry" />
        </mxCell>
        <mxCell id="bHOIuGT-a0G8BVBxqqnn-35" value="" style="ellipse;shape=cloud;whiteSpace=wrap;html=1;" vertex="1" parent="1">
          <mxGeometry y="332.5" width="400" height="267.5" as="geometry" />
        </mxCell>
        <mxCell id="bHOIuGT-a0G8BVBxqqnn-7" value="" style="group;fillColor=#f8cecc;strokeColor=#b85450;" vertex="1" connectable="0" parent="1">
          <mxGeometry x="380" y="30" width="180" height="160" as="geometry" />
        </mxCell>
        <mxCell id="bHOIuGT-a0G8BVBxqqnn-5" value="" style="rounded=0;whiteSpace=wrap;html=1;" vertex="1" parent="bHOIuGT-a0G8BVBxqqnn-7">
          <mxGeometry width="180" height="160" as="geometry" />
        </mxCell>
        <mxCell id="bHOIuGT-a0G8BVBxqqnn-2" value="prod-override-values.yaml" style="rounded=0;whiteSpace=wrap;html=1;" vertex="1" parent="bHOIuGT-a0G8BVBxqqnn-7">
          <mxGeometry x="10" y="40" width="160" height="20" as="geometry" />
        </mxCell>
        <mxCell id="bHOIuGT-a0G8BVBxqqnn-3" value="int-override-values.yaml" style="rounded=0;whiteSpace=wrap;html=1;" vertex="1" parent="bHOIuGT-a0G8BVBxqqnn-7">
          <mxGeometry x="10" y="80" width="160" height="20" as="geometry" />
        </mxCell>
        <mxCell id="bHOIuGT-a0G8BVBxqqnn-4" value="values.yaml" style="rounded=0;whiteSpace=wrap;html=1;" vertex="1" parent="bHOIuGT-a0G8BVBxqqnn-7">
          <mxGeometry x="10" y="120" width="160" height="20" as="geometry" />
        </mxCell>
        <mxCell id="bHOIuGT-a0G8BVBxqqnn-6" value="Master" style="text;html=1;strokeColor=none;fillColor=none;align=center;verticalAlign=middle;whiteSpace=wrap;rounded=0;" vertex="1" parent="bHOIuGT-a0G8BVBxqqnn-7">
          <mxGeometry x="60" width="60" height="30" as="geometry" />
        </mxCell>
        <mxCell id="bHOIuGT-a0G8BVBxqqnn-15" value="feature-be-xxx namespace" style="shape=cube;whiteSpace=wrap;html=1;boundedLbl=1;backgroundOutline=1;darkOpacity=0.05;darkOpacity2=0.1;" vertex="1" parent="1">
          <mxGeometry x="220" y="430" width="120" height="80" as="geometry" />
        </mxCell>
        <mxCell id="bHOIuGT-a0G8BVBxqqnn-16" value="int namespace" style="shape=cube;whiteSpace=wrap;html=1;boundedLbl=1;backgroundOutline=1;darkOpacity=0.05;darkOpacity2=0.1;" vertex="1" parent="1">
          <mxGeometry x="70" y="430" width="120" height="80" as="geometry" />
        </mxCell>
        <mxCell id="bHOIuGT-a0G8BVBxqqnn-26" style="edgeStyle=orthogonalEdgeStyle;rounded=0;orthogonalLoop=1;jettySize=auto;html=1;exitX=0.5;exitY=1;exitDx=0;exitDy=0;entryX=0.5;entryY=0;entryDx=0;entryDy=0;" edge="1" parent="1" source="bHOIuGT-a0G8BVBxqqnn-5" target="bHOIuGT-a0G8BVBxqqnn-13">
          <mxGeometry relative="1" as="geometry" />
        </mxCell>
        <mxCell id="bHOIuGT-a0G8BVBxqqnn-28" style="edgeStyle=orthogonalEdgeStyle;rounded=0;orthogonalLoop=1;jettySize=auto;html=1;exitX=0;exitY=0.5;exitDx=0;exitDy=0;entryX=0;entryY=0;entryDx=100;entryDy=0;entryPerimeter=0;" edge="1" parent="1" source="bHOIuGT-a0G8BVBxqqnn-4" target="bHOIuGT-a0G8BVBxqqnn-16">
          <mxGeometry relative="1" as="geometry" />
        </mxCell>
        <mxCell id="bHOIuGT-a0G8BVBxqqnn-29" style="edgeStyle=orthogonalEdgeStyle;rounded=0;orthogonalLoop=1;jettySize=auto;html=1;exitX=0;exitY=0.5;exitDx=0;exitDy=0;entryX=0;entryY=0;entryDx=0;entryDy=0;entryPerimeter=0;" edge="1" parent="1" source="bHOIuGT-a0G8BVBxqqnn-3" target="bHOIuGT-a0G8BVBxqqnn-16">
          <mxGeometry relative="1" as="geometry" />
        </mxCell>
        <mxCell id="bHOIuGT-a0G8BVBxqqnn-31" value="" style="group" vertex="1" connectable="0" parent="1">
          <mxGeometry x="380" y="240" width="430" height="350" as="geometry" />
        </mxCell>
        <mxCell id="bHOIuGT-a0G8BVBxqqnn-9" value="" style="rounded=0;whiteSpace=wrap;html=1;" vertex="1" parent="bHOIuGT-a0G8BVBxqqnn-31">
          <mxGeometry width="180" height="200" as="geometry" />
        </mxCell>
        <mxCell id="bHOIuGT-a0G8BVBxqqnn-8" value="" style="group" vertex="1" connectable="0" parent="bHOIuGT-a0G8BVBxqqnn-31">
          <mxGeometry width="430" height="350" as="geometry" />
        </mxCell>
        <mxCell id="bHOIuGT-a0G8BVBxqqnn-10" value="prod-override-values.yaml" style="rounded=0;whiteSpace=wrap;html=1;" vertex="1" parent="bHOIuGT-a0G8BVBxqqnn-8">
          <mxGeometry x="10" y="40" width="160" height="20" as="geometry" />
        </mxCell>
        <mxCell id="bHOIuGT-a0G8BVBxqqnn-11" value="int-override-values.yaml" style="rounded=0;whiteSpace=wrap;html=1;" vertex="1" parent="bHOIuGT-a0G8BVBxqqnn-8">
          <mxGeometry x="10" y="80" width="160" height="20" as="geometry" />
        </mxCell>
        <mxCell id="bHOIuGT-a0G8BVBxqqnn-12" value="values.yaml" style="rounded=0;whiteSpace=wrap;html=1;" vertex="1" parent="bHOIuGT-a0G8BVBxqqnn-8">
          <mxGeometry x="10" y="120" width="160" height="20" as="geometry" />
        </mxCell>
        <mxCell id="bHOIuGT-a0G8BVBxqqnn-13" value="feature/be-XXX" style="text;html=1;strokeColor=none;fillColor=none;align=center;verticalAlign=middle;whiteSpace=wrap;rounded=0;" vertex="1" parent="bHOIuGT-a0G8BVBxqqnn-8">
          <mxGeometry x="35" width="110" height="30" as="geometry" />
        </mxCell>
        <mxCell id="bHOIuGT-a0G8BVBxqqnn-24" value="feature-be-XXX-overridevalues.yaml" style="rounded=0;whiteSpace=wrap;html=1;" vertex="1" parent="bHOIuGT-a0G8BVBxqqnn-8">
          <mxGeometry x="10" y="150" width="160" height="30" as="geometry" />
        </mxCell>
        <mxCell id="bHOIuGT-a0G8BVBxqqnn-42" value="&lt;font style=&quot;font-size: 16px&quot;&gt;TAG PROD&lt;/font&gt;" style="rounded=0;whiteSpace=wrap;html=1;fillColor=#d5e8d4;strokeColor=#82b366;" vertex="1" parent="bHOIuGT-a0G8BVBxqqnn-8">
          <mxGeometry x="220" y="-30" width="140" height="60" as="geometry" />
        </mxCell>
        <mxCell id="bHOIuGT-a0G8BVBxqqnn-33" style="edgeStyle=orthogonalEdgeStyle;rounded=0;orthogonalLoop=1;jettySize=auto;html=1;exitX=0;exitY=0.5;exitDx=0;exitDy=0;entryX=0;entryY=0;entryDx=0;entryDy=0;entryPerimeter=0;" edge="1" parent="1" source="bHOIuGT-a0G8BVBxqqnn-12" target="bHOIuGT-a0G8BVBxqqnn-15">
          <mxGeometry relative="1" as="geometry" />
        </mxCell>
        <mxCell id="bHOIuGT-a0G8BVBxqqnn-34" style="edgeStyle=orthogonalEdgeStyle;rounded=0;orthogonalLoop=1;jettySize=auto;html=1;exitX=0;exitY=0.5;exitDx=0;exitDy=0;entryX=0;entryY=0;entryDx=100;entryDy=0;entryPerimeter=0;" edge="1" parent="1" source="bHOIuGT-a0G8BVBxqqnn-24" target="bHOIuGT-a0G8BVBxqqnn-15">
          <mxGeometry relative="1" as="geometry" />
        </mxCell>
        <mxCell id="bHOIuGT-a0G8BVBxqqnn-36" value="DEV cluster" style="text;html=1;strokeColor=none;fillColor=none;align=center;verticalAlign=middle;whiteSpace=wrap;rounded=0;" vertex="1" parent="1">
          <mxGeometry x="160" y="530" width="140" height="30" as="geometry" />
        </mxCell>
        <mxCell id="bHOIuGT-a0G8BVBxqqnn-39" value="PROD cluster" style="text;html=1;strokeColor=none;fillColor=none;align=center;verticalAlign=middle;whiteSpace=wrap;rounded=0;" vertex="1" parent="1">
          <mxGeometry x="610" y="510" width="140" height="30" as="geometry" />
        </mxCell>
        <mxCell id="bHOIuGT-a0G8BVBxqqnn-43" value="HEAD" style="rounded=0;whiteSpace=wrap;html=1;fillColor=#d5e8d4;strokeColor=#82b366;rotation=90;fontSize=19;" vertex="1" parent="1">
          <mxGeometry x="190" y="110" width="140" height="60" as="geometry" />
        </mxCell>
        <mxCell id="bHOIuGT-a0G8BVBxqqnn-17" value="prod namespace" style="shape=cube;whiteSpace=wrap;html=1;boundedLbl=1;backgroundOutline=1;darkOpacity=0.05;darkOpacity2=0.1;" vertex="1" parent="1">
          <mxGeometry x="620" y="430" width="120" height="80" as="geometry" />
        </mxCell>
      </root>
    </mxGraphModel>
  </diagram>
</mxfile>
